<?xml version="1.0" encoding="UTF-8" standalone="no"?>
<!-- Created with Inkscape (http://www.inkscape.org/) -->

<svg
   xmlns:dc="http://purl.org/dc/elements/1.1/"
   xmlns:cc="http://creativecommons.org/ns#"
   xmlns:rdf="http://www.w3.org/1999/02/22-rdf-syntax-ns#"
   xmlns:svg="http://www.w3.org/2000/svg"
   xmlns="http://www.w3.org/2000/svg"
   xmlns:sodipodi="http://sodipodi.sourceforge.net/DTD/sodipodi-0.dtd"
   xmlns:inkscape="http://www.inkscape.org/namespaces/inkscape"
   id="svg2"
   sodipodi:docname="anyperson.svg"
   viewBox="0 0 112.57866 108.8106"
   sodipodi:version="0.32"
   version="1.0"
   inkscape:output_extension="org.inkscape.output.svg.inkscape"
   inkscape:version="0.48.4 r9939"
   width="100%"
   height="100%">
  <defs
     id="defs3403" />
  <sodipodi:namedview
     id="base"
     bordercolor="#666666"
     inkscape:pageshadow="2"
     guidetolerance="10"
     pagecolor="#ffffff"
     gridtolerance="10000"
     inkscape:window-height="925"
     inkscape:window-maximized="1"
     inkscape:zoom="6.86514"
     objecttolerance="10"
     showgrid="false"
     borderopacity="1.0"
     inkscape:current-layer="layer1"
     inkscape:cx="56.28933"
     inkscape:cy="42.752224"
     inkscape:window-y="0"
     inkscape:window-x="0"
     inkscape:window-width="1920"
     inkscape:pageopacity="0.0"
     inkscape:document-units="px"
     fit-margin-top="0"
     fit-margin-left="0"
     fit-margin-right="0"
     fit-margin-bottom="0" />
  <g
     id="layer1"
     inkscape:label="Layer 1"
     inkscape:groupmode="layer"
     transform="translate(-243.87581,-14.439877)">
    <path
       id="path2689"
       sodipodi:nodetypes="cssscsssscscccsscsssscccsscccsscssscsssccscscsscccccscccssscssccssccssccssccsssscssccscsccscs"
       style="fill:#000000"
       inkscape:connector-curvature="0"
       d="m 243.87581,123.25047 c 0.26412,-1.7824 0.70193,-10.01762 0.97289,-11.86602 1.8568,-12.665996 2.6189,-16.155996 4.226,-19.349996 1.2529,-2.4903 2.6962,-3.4643 8.1446,-5.4968 6.8484,-2.5547 18.369,-7.374 19.826,-8.2938 0.56445,-0.35631 1.2993,-1.2396 2.0233,-2.4322 0.62532,-1.03 2.1058,-2.9382 3.29,-4.2404 1.1842,-1.3022 2.2904,-2.7071 2.4583,-3.1218 0.16789,-0.41475 0.37148,-2.2929 0.45242,-4.1737 l 0.14717,-3.4196 -0.95698,-1.4806 c -0.52633,-0.81435 -1.0626,-1.873 -1.1918,-2.3526 -0.16628,-0.61757 -0.541,-1.0878 -1.2844,-1.6118 -1.2859,-0.90639 -2.2448,-2.1266 -2.4218,-3.0818 -0.18299,-0.98731 -0.57984,-4.2348 -0.74766,-6.1183 -0.3992,-4.4808 -0.57141,-5.7248 -0.91379,-6.6014 -0.72834,-1.8646 -0.41041,-10.634 0.49168,-13.563 0.35398,-1.1493 0.74406,-1.6545 3.013,-3.9022 1.4334,-1.42 3.4058,-3.1214 4.383,-3.7808 1.4896,-1.0052 1.9542,-1.1989 2.8757,-1.1989 0.69467,0 1.5321,-0.21945 2.2761,-0.59646 3.6087,-1.8287 6.4797,-2.4802 8.5922,-1.9499 0.7574,0.19014 1.9712,0.41501 2.6974,0.49974 2.5064,0.29242 5.3677,0.87887 6.0765,1.2454 0.93619,0.48413 6.987,6.4021 7.6721,7.5037 0.58288,0.93721 0.57746,0.84852 0.71371,11.679 l 0.0606,4.8192 0.70378,1.0179 0.70377,1.0179 -0.29298,3.7364 c -0.45635,5.8202 -0.63714,6.4215 -2.8008,9.3146 -0.69115,0.92418 -1.3261,2.0044 -1.411,2.4005 -0.0849,0.39609 0.0138,1.6924 0.21924,2.8806 0.30623,1.7708 0.5778,2.5037 1.5057,4.0634 1.2739,2.1413 3.2786,4.4128 5.1537,5.8397 1.5188,1.1557 9.394,4.6454 12.365,5.479 1.1536,0.32372 3.0697,0.85901 4.258,1.1895 13.05,3.6298 13.377,3.7436 14.78,5.147 1.0272,1.0272 1.1685,1.3137 1.6418,3.3298 1.285,5.4732 1.74047,3.045383 3.02187,24.502376 0,0 -22.55623,12.19679 -112.72432,12.96636 z m 68.76172,-17.38476 c 0.34475,-1.5843 0.78759,-3.8528 0.9841,-5.041 0.90734,-5.486996 3.0489,-20.804996 2.9259,-20.927996 -0.0306,-0.0306 -1.0775,1.4653 -2.3265,3.3243 -1.249,1.859 -2.5229,3.5783 -2.831,3.8207 -0.54926,0.4322 -0.5797,0.42855 -1.5603,-0.18666 -0.55006,-0.3451 -1.8751,-1.4195 -2.9445,-2.3876 l -1.9444,-1.7602 -1.8716,2.0559 -1.8715,2.0559 1.472,2.1241 c 0.80962,1.1683 1.6785,2.6452 1.9309,3.282 0.25241,0.63681 1.1271,2.5621 1.9438,4.2785 2.178,4.576996 4.2095,9.389096 4.6926,11.114996 -0.57318,9.22329 -1.15164,12.20076 1.4005,-1.753 z m -19.771,-2.4186 c 0,-1.4212 1.0038,-6.402896 2.0734,-10.289996 0.47445,-1.7242 1,-3.8352 1.1679,-4.6913 0.30388,-1.5492 0.30201,-1.5612 -0.40124,-2.5833 -0.38859,-0.5648 -0.81907,-1.3497 -0.95659,-1.7442 -0.13756,-0.39454 -0.32842,-0.71734 -0.42417,-0.71734 -0.0957,0 -1.3965,1.3553 -2.8906,3.0118 -1.6633,1.8441 -2.8634,2.9835 -3.0954,2.9388 -0.20837,-0.04013 -0.66585,-0.64734 -1.0166,-1.3494 -0.76885,-1.5387 -1.178,-2.0157 -1.178,-1.3733 13.97585,26.597216 -1.78145,22.859136 6.721,16.797996 z m 1.6312,-21.585996 c 1.2192,-1.4523 6.5694,-2.8951 6.6513,-3.2063 0.12936,-0.49149 -4.8717,-1.3012 -9.735,-6.1678 -3.0791,-3.0811 -5.6768,-5.5535 -5.7728,-5.4942 -0.096,0.05931 -0.2479,0.54234 -0.33761,1.0734 -0.11243,0.66546 -0.52969,1.3925 -1.3426,2.3392 -1.3578,1.5813 -1.3596,1.0288 0.0212,6.2947 0.50201,1.9144 1.0381,4.1288 1.1914,4.921 0.15327,0.79216 0.89147,2.7198 1.6404,4.2835 l 1.3617,2.8433 2.0526,-2.1231 c 1.129,-1.1677 3.0502,-3.3114 4.2694,-4.7636 z m 18.93,1.5603 c 3.1943,-4.6014 3.338,-4.9518 3.7873,-9.2419 0.54282,-5.1823 0.55516,-5.0666 -0.70519,-6.603 -0.59489,-0.72522 -1.1883,-1.3186 -1.3187,-1.3186 -0.13039,0 -2.6953,2.3307 -5.6998,5.1794 -3.0045,2.8486 -5.8919,5.5652 -6.4165,6.0369 -0.92544,0.83208 -2.711,-0.13294 -2.3679,0.50881 0.39394,0.73677 7.0413,6.6128 8.7228,7.9455 0.59412,0.47091 1.2305,0.82861 1.4142,0.79489 0.18368,-0.03373 1.3464,-1.5196 2.5837,-3.302 z" />
  </g>
  <metadata
     id="metadata3401">
    <rdf:RDF>
      <cc:Work>
        <dc:format>image/svg+xml</dc:format>
        <dc:type
           rdf:resource="http://purl.org/dc/dcmitype/StillImage" />
        <cc:license
           rdf:resource="http://creativecommons.org/licenses/publicdomain/" />
        <dc:publisher>
          <cc:Agent
             rdf:about="http://openclipart.org/">
            <dc:title>Openclipart</dc:title>
          </cc:Agent>
        </dc:publisher>
        <dc:title></dc:title>
        <dc:date>2010-12-08T21:19:40</dc:date>
        <dc:description>group of men with a special person</dc:description>
        <dc:source>https://openclipart.org/detail/99949/men-exception-by-pydubreucq</dc:source>
        <dc:creator>
          <cc:Agent>
            <dc:title>pydubreucq</dc:title>
          </cc:Agent>
        </dc:creator>
        <dc:subject>
          <rdf:Bag>
            <rdf:li>business</rdf:li>
            <rdf:li>group</rdf:li>
            <rdf:li>human</rdf:li>
            <rdf:li>human being</rdf:li>
            <rdf:li>man</rdf:li>
            <rdf:li>men</rdf:li>
            <rdf:li>orange</rdf:li>
            <rdf:li>people</rdf:li>
            <rdf:li>person</rdf:li>
            <rdf:li>silhouette</rdf:li>
          </rdf:Bag>
        </dc:subject>
      </cc:Work>
      <cc:License
         rdf:about="http://creativecommons.org/licenses/publicdomain/">
        <cc:permits
           rdf:resource="http://creativecommons.org/ns#Reproduction" />
        <cc:permits
           rdf:resource="http://creativecommons.org/ns#Distribution" />
        <cc:permits
           rdf:resource="http://creativecommons.org/ns#DerivativeWorks" />
      </cc:License>
    </rdf:RDF>
  </metadata>
</svg>
